<?xml version="1.0" encoding="UTF-8"?>
<!DOCTYPE svg PUBLIC "-//W3C//DTD SVG 1.1//EN" "http://www.w3.org/Graphics/SVG/1.1/DTD/svg11.dtd">
<svg version="1.1" xmlns="http://www.w3.org/2000/svg" xmlns:xlink="http://www.w3.org/1999/xlink" x="0" y="0" width="678" height="520.9" viewBox="0, 0, 678, 520.9">
  <g id="Layer_1">
    <g>
      <path d="M0,0 L678,0 L678,520.9 L0,520.9 L0,0 z" fill="#FFFFFF"/>
      <g>
        <g>
          <g>
            <text transform="matrix(1, 0, 0, 1, 389.813, 243.7)">
              <tspan x="-8.34" y="9" font-family="Avenir-Medium" font-size="30" fill="#626264">S</tspan>
            </text>
            <path d="M427.583,235.95 L439.333,235.95 L439.333,244.95 L427.583,244.95 L427.583,235.95 z" fill="#000000"/>
            <path d="M451.5,235.95 L463.25,235.95 L463.25,244.95 L451.5,244.95 L451.5,235.95 z" fill="#000000"/>
            <path d="M475.75,235.95 L487.5,235.95 L487.5,244.95 L475.75,244.95 L475.75,235.95 z" fill="#000000"/>
          </g>
          <g>
            <text transform="matrix(1, 0, 0, 1, 102.48, 351.3)">
              <tspan x="-4.17" y="9" font-family="Avenir-Medium" font-size="30" fill="#626264">I</tspan>
            </text>
            <path d="M163.5,343.95 L175.25,343.95 L175.25,352.95 L163.5,352.95 L163.5,343.95 z" fill="#000000"/>
            <path d="M139.75,343.95 L151.5,343.95 L151.5,352.95 L139.75,352.95 L139.75,343.95 z" fill="#000000"/>
          </g>
          <g>
            <text transform="matrix(1, 0, 0, 1, 102.48, 314.7)">
              <tspan x="-10.56" y="9" font-family="Avenir-Medium" font-size="30" fill="#626264">H</tspan>
            </text>
            <path d="M211.5,307.7 L223.25,307.7 L223.25,316.7 L211.5,316.7 L211.5,307.7 z" fill="#000000"/>
            <path d="M187.25,307.7 L199,307.7 L199,316.7 L187.25,316.7 L187.25,307.7 z" fill="#000000"/>
            <path d="M163.5,307.7 L175.25,307.7 L175.25,316.7 L163.5,316.7 L163.5,307.7 z" fill="#000000"/>
            <path d="M139.75,307.7 L151.5,307.7 L151.5,316.7 L139.75,316.7 L139.75,307.7 z" fill="#000000"/>
          </g>
          <g>
            <text transform="matrix(1, 0, 0, 1, 102.48, 207.9)">
              <tspan x="-9.165" y="9" font-family="Avenir-Medium" font-size="30" fill="#626264">E</tspan>
            </text>
            <path d="M139.75,200.572 L151.5,200.572 L151.5,209.572 L139.75,209.572 L139.75,200.572 z" fill="#000000"/>
          </g>
          <g>
            <text transform="matrix(1, 0, 0, 1, 102.48, 63)">
              <tspan x="-10.56" y="9" font-family="Avenir-Medium" font-size="30" fill="#626264">A</tspan>
            </text>
            <path d="M139.75,56.072 L151.5,56.072 L151.5,65.072 L139.75,65.072 L139.75,56.072 z" fill="#000000"/>
            <path d="M163.5,56.072 L199.5,56.072 L199.5,65.072 L163.5,65.072 L163.5,56.072 z" fill="#000000"/>
          </g>
          <g>
            <text transform="matrix(1, 0, 0, 1, 392.48, 134.167)">
              <tspan x="-8.895" y="9" font-family="Avenir-Medium" font-size="30" fill="#626264">P</tspan>
            </text>
            <path d="M548,127.822 L559.75,127.822 L559.75,136.822 L548,136.822 L548,127.822 z" fill="#000000"/>
            <path d="M427.583,127.822 L439.333,127.822 L439.333,136.822 L427.583,136.822 L427.583,127.822 z" fill="#000000"/>
            <path d="M499.75,127.822 L535.75,127.822 L535.75,136.822 L499.75,136.822 L499.75,127.822 z" fill="#000000"/>
            <path d="M451.5,127.822 L487.5,127.822 L487.5,136.822 L451.5,136.822 L451.5,127.822 z" fill="#000000"/>
          </g>
          <g>
            <text transform="matrix(1, 0, 0, 1, 389.813, 207.9)">
              <tspan x="-9.165" y="9" font-family="Avenir-Medium" font-size="30" fill="#626264">R</tspan>
            </text>
            <path d="M500,200.572 L511.75,200.572 L511.75,209.572 L500,209.572 L500,200.572 z" fill="#000000"/>
            <path d="M427.583,200.572 L439.333,200.572 L439.333,209.572 L427.583,209.572 L427.583,200.572 z" fill="#000000"/>
            <path d="M451.5,200.572 L487.5,200.572 L487.5,209.572 L451.5,209.572 L451.5,200.572 z" fill="#000000"/>
          </g>
          <g>
            <text transform="matrix(1, 0, 0, 1, 389.813, 278.7)">
              <tspan x="-8.61" y="9" font-family="Avenir-Medium" font-size="30" fill="#626264">T</tspan>
            </text>
            <path d="M427.583,272.45 L463.583,272.45 L463.583,281.45 L427.583,281.45 L427.583,272.45 z" fill="#000000"/>
          </g>
          <g>
            <text transform="matrix(1, 0, 0, 1, 389.813, 314.7)">
              <tspan x="-10.56" y="9" font-family="Avenir-Medium" font-size="30" fill="#626264">U</tspan>
            </text>
            <path d="M427.583,307.7 L439.333,307.7 L439.333,316.7 L427.583,316.7 L427.583,307.7 z" fill="#000000"/>
            <path d="M451.5,307.7 L463.25,307.7 L463.25,316.7 L451.5,316.7 L451.5,307.7 z" fill="#000000"/>
            <path d="M475.75,307.7 L511.75,307.7 L511.75,316.7 L475.75,316.7 L475.75,307.7 z" fill="#000000"/>
          </g>
          <g>
            <text transform="matrix(1, 0, 0, 1, 389.813, 351.3)">
              <tspan x="-9.45" y="9" font-family="Avenir-Medium" font-size="30" fill="#626264">V</tspan>
            </text>
            <path d="M427.583,343.95 L439.333,343.95 L439.333,352.95 L427.583,352.95 L427.583,343.95 z" fill="#000000"/>
            <path d="M475.75,343.95 L487.5,343.95 L487.5,352.95 L475.75,352.95 L475.75,343.95 z" fill="#000000"/>
            <path d="M451.833,343.95 L463.583,343.95 L463.583,352.95 L451.833,352.95 L451.833,343.95 z" fill="#000000"/>
            <path d="M499.75,343.95 L535.75,343.95 L535.75,352.95 L499.75,352.95 L499.75,343.95 z" fill="#000000"/>
          </g>
          <g>
            <text transform="matrix(1, 0, 0, 1, 389.813, 386.9)">
              <tspan x="-10.56" y="9" font-family="Avenir-Medium" font-size="30" fill="#626264">W</tspan>
            </text>
            <path d="M427.583,380.2 L439.333,380.2 L439.333,389.2 L427.583,389.2 L427.583,380.2 z" fill="#000000"/>
            <path d="M500,380.2 L536,380.2 L536,389.2 L500,389.2 L500,380.2 z" fill="#000000"/>
            <path d="M451.5,380.2 L487.5,380.2 L487.5,389.2 L451.5,389.2 L451.5,380.2 z" fill="#000000"/>
          </g>
          <g>
            <text transform="matrix(1, 0, 0, 1, 389.813, 422.7)">
              <tspan x="-9.72" y="9" font-family="Avenir-Medium" font-size="30" fill="#626264">X</tspan>
            </text>
            <path d="M499.75,415.95 L511.5,415.95 L511.5,424.95 L499.75,424.95 L499.75,415.95 z" fill="#000000"/>
            <path d="M475.75,415.95 L487.5,415.95 L487.5,424.95 L475.75,424.95 L475.75,415.95 z" fill="#000000"/>
            <path d="M523.75,415.95 L559.75,415.95 L559.75,424.95 L523.75,424.95 L523.75,415.95 z" fill="#000000"/>
            <path d="M427.583,415.95 L463.583,415.95 L463.583,424.95 L427.583,424.95 L427.583,415.95 z" fill="#000000"/>
          </g>
          <g>
            <text transform="matrix(1, 0, 0, 1, 389.813, 494.9)">
              <tspan x="-8.895" y="9" font-family="Avenir-Medium" font-size="30" fill="#626264">Z</tspan>
            </text>
            <path d="M548,487.95 L559.75,487.95 L559.75,496.95 L548,496.95 L548,487.95 z" fill="#000000"/>
            <path d="M524,487.95 L535.75,487.95 L535.75,496.95 L524,496.95 L524,487.95 z" fill="#000000"/>
            <path d="M475.75,487.95 L511.75,487.95 L511.75,496.95 L475.75,496.95 L475.75,487.95 z" fill="#000000"/>
            <path d="M427.583,487.95 L463.583,487.95 L463.583,496.95 L427.583,496.95 L427.583,487.95 z" fill="#000000"/>
          </g>
          <g>
            <text transform="matrix(1, 0, 0, 1, 389.813, 459.5)">
              <tspan x="-9.18" y="9" font-family="Avenir-Medium" font-size="30" fill="#626264">Y</tspan>
            </text>
            <path d="M475.75,452.2 L487.5,452.2 L487.5,461.2 L475.75,461.2 L475.75,452.2 z" fill="#000000"/>
            <path d="M548,452.2 L584,452.2 L584,461.2 L548,461.2 L548,452.2 z" fill="#000000"/>
            <path d="M500,452.2 L536,452.2 L536,461.2 L500,461.2 L500,452.2 z" fill="#000000"/>
            <path d="M427.583,452.2 L463.583,452.2 L463.583,461.2 L427.583,461.2 L427.583,452.2 z" fill="#000000"/>
          </g>
          <g>
            <text transform="matrix(1, 0, 0, 1, 389.813, 171.233)">
              <tspan x="-10.56" y="9" font-family="Avenir-Medium" font-size="30" fill="#626264">Q</tspan>
            </text>
            <path d="M524,164.322 L535.75,164.322 L535.75,173.322 L524,173.322 L524,164.322 z" fill="#000000"/>
            <path d="M548,164.322 L584,164.322 L584,173.322 L548,173.322 L548,164.322 z" fill="#000000"/>
            <path d="M475.75,164.322 L511.75,164.322 L511.75,173.322 L475.75,173.322 L475.75,164.322 z" fill="#000000"/>
            <path d="M427.583,164.322 L463.583,164.322 L463.583,173.322 L427.583,173.322 L427.583,164.322 z" fill="#000000"/>
          </g>
          <g>
            <text transform="matrix(1, 0, 0, 1, 392.48, 98.3)">
              <tspan x="-10.56" y="9" font-family="Avenir-Medium" font-size="30" fill="#626264">O</tspan>
            </text>
            <path d="M427.583,92.05 L463.583,92.05 L463.583,101.05 L427.583,101.05 L427.583,92.05 z" fill="#000000"/>
            <path d="M475.75,92.05 L511.75,92.05 L511.75,101.05 L475.75,101.05 L475.75,92.05 z" fill="#000000"/>
            <path d="M523.75,92.05 L559.75,92.05 L559.75,101.05 L523.75,101.05 L523.75,92.05 z" fill="#000000"/>
          </g>
          <g>
            <text transform="matrix(1, 0, 0, 1, 392.48, 63)">
              <tspan x="-10.56" y="9" font-family="Avenir-Medium" font-size="30" fill="#626264">N</tspan>
            </text>
            <path d="M475.75,56.072 L487.5,56.072 L487.5,65.072 L475.75,65.072 L475.75,56.072 z" fill="#000000"/>
            <path d="M427.583,56.072 L463.583,56.072 L463.583,65.072 L427.583,65.072 L427.583,56.072 z" fill="#000000"/>
          </g>
          <g>
            <text transform="matrix(1, 0, 0, 1, 102.48, 459.5)">
              <tspan x="-7.785" y="9" font-family="Avenir-Medium" font-size="30" fill="#626264">L</tspan>
            </text>
            <path d="M235.75,452.2 L247.5,452.2 L247.5,461.2 L235.75,461.2 L235.75,452.2 z" fill="#000000"/>
            <path d="M211.5,452.2 L223.25,452.2 L223.25,461.2 L211.5,461.2 L211.5,452.2 z" fill="#000000"/>
            <path d="M139.75,452.2 L151.5,452.2 L151.5,461.2 L139.75,461.2 L139.75,452.2 z" fill="#000000"/>
            <path d="M163.5,452.2 L199.5,452.2 L199.5,461.2 L163.5,461.2 L163.5,452.2 z" fill="#000000"/>
          </g>
          <g>
            <text transform="matrix(1, 0, 0, 1, 102.48, 494.9)">
              <tspan x="-10.56" y="9" font-family="Avenir-Medium" font-size="30" fill="#626264">M</tspan>
            </text>
            <path d="M187.75,487.95 L223.75,487.95 L223.75,496.95 L187.75,496.95 L187.75,487.95 z" fill="#000000"/>
            <path d="M139.75,487.95 L175.75,487.95 L175.75,496.95 L139.75,496.95 L139.75,487.95 z" fill="#000000"/>
          </g>
          <g>
            <text transform="matrix(1, 0, 0, 1, 102.48, 422.7)">
              <tspan x="-9.72" y="9" font-family="Avenir-Medium" font-size="30" fill="#626264">K</tspan>
            </text>
            <path d="M187.75,415.95 L199.5,415.95 L199.5,424.95 L187.75,424.95 L187.75,415.95 z" fill="#000000"/>
            <path d="M139.25,415.95 L175.25,415.95 L175.25,424.95 L139.25,424.95 L139.25,415.95 z" fill="#000000"/>
            <path d="M211.5,415.95 L247.5,415.95 L247.5,424.95 L211.5,424.95 L211.5,415.95 z" fill="#000000"/>
          </g>
          <g>
            <text transform="matrix(1, 0, 0, 1, 102.48, 386.9)">
              <tspan x="-7.23" y="9" font-family="Avenir-Medium" font-size="30" fill="#626264">J</tspan>
            </text>
            <path d="M139.25,380.2 L151,380.2 L151,389.2 L139.25,389.2 L139.25,380.2 z" fill="#000000"/>
            <path d="M163.5,380.2 L199.5,380.2 L199.5,389.2 L163.5,389.2 L163.5,380.2 z" fill="#000000"/>
            <path d="M211.5,380.2 L247.5,380.2 L247.5,389.2 L211.5,389.2 L211.5,380.2 z" fill="#000000"/>
            <path d="M259.5,380.2 L295.5,380.2 L295.5,389.2 L259.5,389.2 L259.5,380.2 z" fill="#000000"/>
          </g>
          <g>
            <text transform="matrix(1, 0, 0, 1, 102.48, 278.7)">
              <tspan x="-10.56" y="9" font-family="Avenir-Medium" font-size="30" fill="#626264">G</tspan>
            </text>
            <path d="M235.75,272.45 L247.5,272.45 L247.5,281.45 L235.75,281.45 L235.75,272.45 z" fill="#000000"/>
            <path d="M187.25,272.45 L223.25,272.45 L223.25,281.45 L187.25,281.45 L187.25,272.45 z" fill="#000000"/>
            <path d="M139.25,272.45 L175.25,272.45 L175.25,281.45 L139.25,281.45 L139.25,272.45 z" fill="#000000"/>
          </g>
          <g>
            <text transform="matrix(1, 0, 0, 1, 102.48, 243.7)">
              <tspan x="-8.61" y="9" font-family="Avenir-Medium" font-size="30" fill="#626264">F</tspan>
            </text>
            <path d="M235.75,235.95 L247.5,235.95 L247.5,244.95 L235.75,244.95 L235.75,235.95 z" fill="#000000"/>
            <path d="M163.5,235.95 L175.25,235.95 L175.25,244.95 L163.5,244.95 L163.5,235.95 z" fill="#000000"/>
            <path d="M139.75,235.95 L151.5,235.95 L151.5,244.95 L139.75,244.95 L139.75,235.95 z" fill="#000000"/>
            <path d="M187.75,235.95 L223.75,235.95 L223.75,244.95 L187.75,244.95 L187.75,235.95 z" fill="#000000"/>
          </g>
          <g>
            <text transform="matrix(1, 0, 0, 1, 102.48, 171.233)">
              <tspan x="-10.56" y="9" font-family="Avenir-Medium" font-size="30" fill="#626264">D</tspan>
            </text>
            <path d="M211.5,164.322 L223.25,164.322 L223.25,173.322 L211.5,173.322 L211.5,164.322 z" fill="#000000"/>
            <path d="M187.75,164.322 L199.5,164.322 L199.5,173.322 L187.75,173.322 L187.75,164.322 z" fill="#000000"/>
            <path d="M139.75,164.322 L175.75,164.322 L175.75,173.322 L139.75,173.322 L139.75,164.322 z" fill="#000000"/>
          </g>
          <g>
            <text transform="matrix(1, 0, 0, 1, 102.48, 134.167)">
              <tspan x="-10.56" y="9" font-family="Avenir-Medium" font-size="30" fill="#626264">C</tspan>
            </text>
            <path d="M259.5,127.822 L271.25,127.822 L271.25,136.822 L259.5,136.822 L259.5,127.822 z" fill="#000000"/>
            <path d="M187.75,127.822 L199.5,127.822 L199.5,136.822 L187.75,136.822 L187.75,127.822 z" fill="#000000"/>
            <path d="M211.5,127.822 L247.5,127.822 L247.5,136.822 L211.5,136.822 L211.5,127.822 z" fill="#000000"/>
            <path d="M139.75,127.822 L175.75,127.822 L175.75,136.822 L139.75,136.822 L139.75,127.822 z" fill="#000000"/>
          </g>
          <g>
            <text transform="matrix(1, 0, 0, 1, 102.48, 98.3)">
              <tspan x="-9.45" y="9" font-family="Avenir-Medium" font-size="30" fill="#626264">B</tspan>
            </text>
            <path d="M187.75,92.05 L199.5,92.05 L199.5,101.05 L187.75,101.05 L187.75,92.05 z" fill="#000000"/>
            <path d="M211.5,92.05 L223.25,92.05 L223.25,101.05 L211.5,101.05 L211.5,92.05 z" fill="#000000"/>
            <path d="M235.75,92.05 L247.5,92.05 L247.5,101.05 L235.75,101.05 L235.75,92.05 z" fill="#000000"/>
            <path d="M139.75,92.05 L175.75,92.05 L175.75,101.05 L139.75,101.05 L139.75,92.05 z" fill="#000000"/>
          </g>
        </g>
        <text transform="matrix(1, 0, 0, 1, 201.09, 21)">
          <tspan x="-109.17" y="9" font-family="Avenir-Medium" font-size="30" fill="#C81919">Standard letters</tspan>
        </text>
      </g>
    </g>
  </g>
</svg>
